# xmcd
#
# Track frame offsets:
#	150
#	10238
#	26870
#	39241
#	57277
#	70962
#	86378
#	100864
#	118164
#	133654
#	149560
#	161826
#
# Disc length: 2311 seconds
#
# Revision: 2
# Processed by: cddbd v1.5.2PL0 Copyright (c) Steve Scherf et al.
# Submitted via: EZCDAudioConverter 8.2.2.1
#
DISCID=a709050c
DTITLE=葉振棠 - 浮生六劫
DYEAR=1980
DGENRE=World Pop
TTITLE0=浮生六劫
TTITLE1=愛的哀歌
TTITLE2=戲劇人生
TTITLE3=城市之歌
TTITLE4=人生長跑
TTITLE5=薔薇謝了
TTITLE6=天長地久
TTITLE7=故鄉之淚
TTITLE8=歌聲飄世上
TTITLE9=秋風冷雨
TTITLE10=親情
TTITLE11=何妨又跳躍
EXTD=
EXTT0=
EXTT1=
EXTT2=
EXTT3=
EXTT4=
EXTT5=
EXTT6=
EXTT7=
EXTT8=
EXTT9=
EXTT10=
EXTT11=
PLAYORDER=
